<svg viewBox="0 0 15 15" xmlns="http://www.w3.org/2000/svg">
    <path d="M14.0554 14.1973C14.0554 14.3955 13.9734 14.5856 13.8276 14.7258C13.6817 14.8659 13.4839 14.9447 13.2776 14.9447H0.833137C0.626857 14.9447 0.429027 14.8659 0.283165 14.7258C0.137303 14.5856 0.0553591 14.3955 0.0553591 14.1973V6.3426C0.0552768 6.22871 0.0822834 6.11631 0.134316 6.01399C0.186348 5.91166 0.26203 5.82211 0.355581 5.75219L6.5778 1.10214C6.71434 1.00008 6.88238 0.944672 7.05536 0.944672C7.22834 0.944672 7.39638 1.00008 7.53291 1.10214L13.7551 5.75219C13.8487 5.82211 13.9244 5.91166 13.9764 6.01399C14.0284 6.11631 14.0554 6.22871 14.0554 6.3426V14.1973ZM12.4998 13.45V6.70731L7.05536 2.6387L1.61091 6.70731V13.45H12.4998Z" />
</svg>